<svg xmlns="http://www.w3.org/2000/svg" xmlns:xlink="http://www.w3.org/1999/xlink" xmlns:lucid="lucid" width="789.34" height="464.24"><g transform="translate(-80 -20)" lucid:page-tab-id="0_0"><path d="M260 145c0-2.76 2.24-5 5-5h170c2.76 0 5 2.24 5 5v50c0 2.76-2.24 5-5 5H265c-2.76 0-5-2.24-5-5z" stroke="#000" stroke-width="2" fill="#e5e5e5"/><use xlink:href="#a" transform="matrix(1,0,0,1,259.99999999999966,140) translate(30.07999999999999 33.15)"/><path d="M260 223.6c0-2.77 2.24-5 5-5h170c2.76 0 5 2.23 5 5v50c0 2.75-2.24 5-5 5H265c-2.76 0-5-2.25-5-5z" stroke="#000" stroke-width="2" fill="#e5e5e5"/><use xlink:href="#b" transform="matrix(1,0,0,1,259.99999999999966,218.58725761772848) translate(13.580000000000007 33.15)"/><path d="M700 142.8c0-2.76 2.24-5 5-5h139.33c2.76 0 5 2.24 5 5v128.6c0 2.75-2.24 5-5 5H705c-2.76 0-5-2.25-5-5z" stroke="#000" stroke-width="2" fill="#e5e5e5"/><use xlink:href="#c" transform="matrix(1,0,0,1,700,137.80609418282552) translate(24.629999999999995 75.2125)"/><path d="M100 68c0-15.46 12.54-28 28-28h693.33c15.47 0 28 12.54 28 28v4c0 15.46-12.53 28-28 28H128c-15.46 0-28-12.54-28-28z" stroke="#000" stroke-width="2" fill="#ffc374"/><use xlink:href="#d" transform="matrix(1,0,0,1,100,40) translate(283.63 33.15)"/><use xlink:href="#e" transform="matrix(1,0,0,1,100,40) translate(369.58000000000004 33.15)"/><use xlink:href="#f" transform="matrix(1,0,0,1,100,40) translate(428.43 33.15)"/><path d="M100 142.8c0-2.76 2.24-5 5-5h135.7c2.78 0 5 2.24 5 5v130.8c0 2.75-2.22 5-5 5H105c-2.76 0-5-2.25-5-5z" stroke="#000" stroke-width="2" fill="#ffc374"/><use xlink:href="#g" transform="matrix(1,0,0,1,100.00000000000003,137.80609418282552) translate(30.57999999999999 76.0875)"/><path d="M100 409.24c0-2.76 2.24-5 5-5h739.34c2.76 0 5 2.24 5 5v50c0 2.76-2.24 5-5 5H105c-2.76 0-5-2.24-5-5z" stroke="#000" stroke-width="2" fill="#e5e5e5"/><use xlink:href="#h" transform="matrix(1,0,0,1,100.0017996220069,404.23822714681467) translate(318.23 33.15)"/><path d="M101 381.4h3m3.98 0h6m3.97 0h6m3.98 0h5.98m4 0h5.98m4 0h5.98m4 0h5.97m4 0h5.97m4 0h5.98m4 0h5.97m4 0h5.97m4 0h5.98m3.98 0h6m3.98 0h5.98m4 0h5.97m4 0h6m3.98 0h5.98m4 0h5.97m4 0h5.98m4 0h5.98m4 0h5.97m4 0h5.98m3.98 0h6m4 0h5.97m4 0h5.97m4 0h5.98m4 0h5.97m3.98 0h5.98m4 0h5.98m4 0h5.97m4 0h5.98m4 0h5.98m3.98 0h6m3.98 0h5.98m4 0h5.97m4 0h5.98m4 0H463m4 0h5.97m3.98 0h6m3.98 0h5.98m4 0h5.97m4 0h6m3.97 0h6m3.98 0h5.98m4 0h5.97m4 0h5.98m4 0h5.97m4 0h5.97m4 0h5.98m4 0h5.97m4 0h5.97m4 0h5.98m3.98 0h6m3.98 0h5.98m4 0h5.97m4 0h5.98m4 0h5.98m4 0h5.97m4 0h5.98m4 0h5.97m4 0h5.97m4 0h5.97m4 0h5.98m4 0h5.97m3.98 0h5.98m4 0h5.98m4 0h5.97m4 0h5.98m4 0h5.98m3.98 0h6m3.98 0h5.98m4 0h5.97m4 0h5.98m4 0H832m4 0H839M101.03 381.4H100M838.98 381.4H840M101 120h3m4 0h5.98m3.98 0h6m3.98 0h5.98m4 0h5.97m3.98 0h6m3.98 0h5.98m4 0h5.97m4 0h6m3.97 0h6m3.98 0h5.98m4 0h5.97m4 0h5.98m4 0h5.97m4 0h5.97m4 0h5.98m3.98 0h6m3.98 0h5.98m4 0h5.97m4 0h6m3.98 0h5.98m4 0h5.97m4 0h5.98m4 0h5.98m4 0h5.97m4 0h5.97m4 0h5.98m4 0h5.97m4 0h5.97m4 0h5.97m4 0h6m3.98 0h5.98m4 0h5.97m4 0h5.98m4 0h5.98m4 0h5.97m4 0H463m4 0H473m4 0h5.97m4 0h5.97m4 0h5.98m3.98 0h6m3.98 0h5.98m4 0h5.97m4 0h5.98m4 0h5.98m4 0h5.97m4 0h5.98m3.98 0h6m4 0h5.97m4 0h5.97m4 0h5.98m4 0h5.97m3.98 0h5.98m4 0h5.98m3.98 0h6m3.98 0h5.98m4 0h5.97m4 0h5.98m4 0h5.97m4 0h5.97m4 0h5.98m3.98 0h6m3.98 0h6m3.98 0h5.98m4 0h5.98m4 0h5.97m4 0h5.98m4 0h5.97m4 0h5.98m4 0h5.97m4 0h5.97m4 0h5.98m4 0H832m4 0H839M101.04 120H100M838.97 120H840" stroke="#000" stroke-width="2" fill="none"/><path d="M454.3 145c0-2.76 2.22-5 5-5h143.9c2.76 0 5 2.24 5 5v128.6c0 2.75-2.24 5-5 5H459.3c-2.78 0-5-2.25-5-5z" stroke="#000" stroke-width="2" fill="#e5e5e5"/><use xlink:href="#i" transform="matrix(1,0,0,1,454.28571428571377,140) translate(25.554999999999993 75.2125)"/><path d="M628.2 207.1c0 2.26-1.84 4.1-4.1 4.1s-4.1-1.84-4.1-4.1 1.84-4.1 4.1-4.1 4.1 1.84 4.1 4.1zM648.2 207.1c0 2.26-1.84 4.1-4.1 4.1s-4.1-1.84-4.1-4.1 1.84-4.1 4.1-4.1 4.1 1.84 4.1 4.1zM668.2 207.1c0 2.26-1.84 4.1-4.1 4.1s-4.1-1.84-4.1-4.1 1.84-4.1 4.1-4.1 4.1 1.84 4.1 4.1zM688.2 207.1c0 2.26-1.84 4.1-4.1 4.1s-4.1-1.84-4.1-4.1 1.84-4.1 4.1-4.1 4.1 1.84 4.1 4.1z" stroke="#000" stroke-width="2"/><path d="M100 305c0-2.76 2.24-5 5-5h739.33c2.77 0 5 2.24 5 5v50c0 2.76-2.23 5-5 5H105c-2.76 0-5-2.24-5-5z" stroke="#000" stroke-width="2" fill="#e5e5e5"/><g><use xlink:href="#j" transform="matrix(1,0,0,1,100.00089981100348,300) translate(341.055 33.15)"/></g><defs><path d="M185-189c-5-48-123-54-124 2 14 75 158 14 163 119 3 78-121 87-175 55-17-10-28-26-33-46l33-7c5 56 141 63 141-1 0-78-155-14-162-118-5-82 145-84 179-34 5 7 8 16 11 25" id="k"/><path d="M115-194c55 1 70 41 70 98S169 2 115 4C84 4 66-9 55-30l1 105H24l-1-265h31l2 30c10-21 28-34 59-34zm-8 174c40 0 45-34 45-75s-6-73-45-74c-42 0-51 32-51 76 0 43 10 73 51 73" id="l"/><path d="M100-194c62-1 85 37 85 99 1 63-27 99-86 99S16-35 15-95c0-66 28-99 85-99zM99-20c44 1 53-31 53-75 0-43-8-75-51-75s-53 32-53 75 10 74 51 75" id="m"/><path d="M114-163C36-179 61-72 57 0H25l-1-190h30c1 12-1 29 2 39 6-27 23-49 58-41v29" id="n"/><path d="M59-47c-2 24 18 29 38 22v24C64 9 27 4 27-40v-127H5v-23h24l9-43h21v43h35v23H59v120" id="o"/><path d="M106-169C34-169 62-67 57 0H25v-261h32l-1 103c12-21 28-36 61-36 89 0 53 116 60 194h-32v-121c2-32-8-49-39-48" id="p"/><path d="M205 0l-28-72H64L36 0H1l101-248h38L239 0h-34zm-38-99l-47-123c-12 45-31 82-46 123h93" id="q"/><path d="M84 4C-5 8 30-112 23-190h32v120c0 31 7 50 39 49 72-2 45-101 50-169h31l1 190h-30c-1-10 1-25-2-33-11 22-28 36-60 37" id="r"/><path d="M85-194c31 0 48 13 60 33l-1-100h32l1 261h-30c-2-10 0-23-3-31C134-8 116 4 85 4 32 4 16-35 15-94c0-66 23-100 70-100zm9 24c-40 0-46 34-46 75 0 40 6 74 45 74 42 0 51-32 51-76 0-42-9-74-50-73" id="s"/><path d="M24-231v-30h32v30H24zM24 0v-190h32V0H24" id="t"/><path d="M194 0L95-120 63-95V0H30v-248h33v124l119-124h40L117-140 236 0h-42" id="u"/><g id="a"><use transform="matrix(0.05,0,0,0.05,0,0)" xlink:href="#k"/><use transform="matrix(0.05,0,0,0.05,12,0)" xlink:href="#l"/><use transform="matrix(0.05,0,0,0.05,22,0)" xlink:href="#m"/><use transform="matrix(0.05,0,0,0.05,32,0)" xlink:href="#n"/><use transform="matrix(0.05,0,0,0.05,37.95,0)" xlink:href="#o"/><use transform="matrix(0.05,0,0,0.05,42.95,0)" xlink:href="#p"/><use transform="matrix(0.05,0,0,0.05,52.95,0)" xlink:href="#q"/><use transform="matrix(0.05,0,0,0.05,64.95,0)" xlink:href="#r"/><use transform="matrix(0.05,0,0,0.05,74.95,0)" xlink:href="#s"/><use transform="matrix(0.05,0,0,0.05,84.95,0)" xlink:href="#t"/><use transform="matrix(0.05,0,0,0.05,88.9,0)" xlink:href="#m"/><use transform="matrix(0.05,0,0,0.05,98.9,0)" xlink:href="#u"/><use transform="matrix(0.05,0,0,0.05,110.9,0)" xlink:href="#t"/><use transform="matrix(0.05,0,0,0.05,114.85000000000001,0)" xlink:href="#o"/></g><path d="M117-194c89-4 53 116 60 194h-32v-121c0-31-8-49-39-48C34-167 62-67 57 0H25l-1-190h30c1 10-1 24 2 32 11-22 29-35 61-36" id="v"/><path d="M100-194c63 0 86 42 84 106H49c0 40 14 67 53 68 26 1 43-12 49-29l28 8c-11 28-37 45-77 45C44 4 14-33 15-96c1-61 26-98 85-98zm52 81c6-60-76-77-97-28-3 7-6 17-6 28h103" id="w"/><g id="b"><use transform="matrix(0.05,0,0,0.05,0,0)" xlink:href="#k"/><use transform="matrix(0.05,0,0,0.05,12,0)" xlink:href="#m"/><use transform="matrix(0.05,0,0,0.05,22,0)" xlink:href="#r"/><use transform="matrix(0.05,0,0,0.05,32,0)" xlink:href="#v"/><use transform="matrix(0.05,0,0,0.05,42,0)" xlink:href="#s"/><use transform="matrix(0.05,0,0,0.05,52,0)" xlink:href="#l"/><use transform="matrix(0.05,0,0,0.05,62,0)" xlink:href="#t"/><use transform="matrix(0.05,0,0,0.05,65.95,0)" xlink:href="#l"/><use transform="matrix(0.05,0,0,0.05,75.95,0)" xlink:href="#w"/><use transform="matrix(0.05,0,0,0.05,85.95,0)" xlink:href="#q"/><use transform="matrix(0.05,0,0,0.05,97.95,0)" xlink:href="#r"/><use transform="matrix(0.05,0,0,0.05,107.95,0)" xlink:href="#s"/><use transform="matrix(0.05,0,0,0.05,117.95,0)" xlink:href="#t"/><use transform="matrix(0.05,0,0,0.05,121.9,0)" xlink:href="#m"/><use transform="matrix(0.05,0,0,0.05,131.9,0)" xlink:href="#u"/><use transform="matrix(0.05,0,0,0.05,143.9,0)" xlink:href="#t"/><use transform="matrix(0.05,0,0,0.05,147.85,0)" xlink:href="#o"/></g><path d="M209 0H11v-25l151-195H24v-28h176v25L50-27h159V0" id="x"/><g id="c"><use transform="matrix(0.05,0,0,0.05,0,0)" xlink:href="#x"/><use transform="matrix(0.05,0,0,0.05,10.950000000000001,0)" xlink:href="#x"/><use transform="matrix(0.05,0,0,0.05,21.900000000000002,0)" xlink:href="#x"/><use transform="matrix(0.05,0,0,0.05,32.85,0)" xlink:href="#q"/><use transform="matrix(0.05,0,0,0.05,44.85,0)" xlink:href="#r"/><use transform="matrix(0.05,0,0,0.05,54.85,0)" xlink:href="#s"/><use transform="matrix(0.05,0,0,0.05,64.85,0)" xlink:href="#t"/><use transform="matrix(0.05,0,0,0.05,68.8,0)" xlink:href="#m"/><use transform="matrix(0.05,0,0,0.05,78.8,0)" xlink:href="#u"/><use transform="matrix(0.05,0,0,0.05,90.8,0)" xlink:href="#t"/><use transform="matrix(0.05,0,0,0.05,94.75,0)" xlink:href="#o"/></g><path d="M212-179c-10-28-35-45-73-45-59 0-87 40-87 99 0 60 29 101 89 101 43 0 62-24 78-52l27 14C228-24 195 4 139 4 59 4 22-46 18-125c-6-104 99-153 187-111 19 9 31 26 39 46" id="y"/><path d="M143 0L79-87 56-68V0H24v-261h32v163l83-92h37l-77 82L181 0h-38" id="z"/><path d="M115-194c53 0 69 39 70 98 0 66-23 100-70 100C84 3 66-7 56-30L54 0H23l1-261h32v101c10-23 28-34 59-34zm-8 174c40 0 45-34 45-75 0-40-5-75-45-74-42 0-51 32-51 76 0 43 10 73 51 73" id="A"/><g id="d"><use transform="matrix(0.05,0,0,0.05,0,0)" xlink:href="#y"/><use transform="matrix(0.05,0,0,0.05,12.950000000000001,0)" xlink:href="#m"/><use transform="matrix(0.05,0,0,0.05,22.950000000000003,0)" xlink:href="#m"/><use transform="matrix(0.05,0,0,0.05,32.95,0)" xlink:href="#z"/><use transform="matrix(0.05,0,0,0.05,41.95,0)" xlink:href="#A"/><use transform="matrix(0.05,0,0,0.05,51.95,0)" xlink:href="#m"/><use transform="matrix(0.05,0,0,0.05,61.95,0)" xlink:href="#m"/><use transform="matrix(0.05,0,0,0.05,71.95,0)" xlink:href="#z"/></g><path d="M87 75C49 33 22-17 22-94c0-76 28-126 65-167h31c-38 41-64 92-64 168S80 34 118 75H87" id="B"/><path d="M30-248c118-7 216 8 213 122C240-48 200 0 122 0H30v-248zM63-27c89 8 146-16 146-99s-60-101-146-95v194" id="C"/><path d="M210-169c-67 3-38 105-44 169h-31v-121c0-29-5-50-35-48C34-165 62-65 56 0H25l-1-190h30c1 10-1 24 2 32 10-44 99-50 107 0 11-21 27-35 58-36 85-2 47 119 55 194h-31v-121c0-29-5-49-35-48" id="D"/><g id="e"><use transform="matrix(0.05,0,0,0.05,0,0)" xlink:href="#B"/><use transform="matrix(0.05,0,0,0.05,5.95,0)" xlink:href="#C"/><use transform="matrix(0.05,0,0,0.05,18.900000000000002,0)" xlink:href="#w"/><use transform="matrix(0.05,0,0,0.05,28.900000000000002,0)" xlink:href="#D"/><use transform="matrix(0.05,0,0,0.05,43.85,0)" xlink:href="#m"/></g><path d="M33-261c38 41 65 92 65 168S71 34 33 75H2C39 34 66-17 66-93S39-220 2-261h31" id="E"/><g id="f"><use transform="matrix(0.05,0,0,0.05,0,0)" xlink:href="#q"/><use transform="matrix(0.05,0,0,0.05,12,0)" xlink:href="#l"/><use transform="matrix(0.05,0,0,0.05,22,0)" xlink:href="#l"/><use transform="matrix(0.05,0,0,0.05,32,0)" xlink:href="#E"/></g><path d="M232-93c-1 65-40 97-104 97C67 4 28-28 28-90v-158h33c8 89-33 224 67 224 102 0 64-133 71-224h33v155" id="F"/><path d="M33 0v-248h34V0H33" id="G"/><g id="g"><use transform="matrix(0.05,0,0,0.05,0,0)" xlink:href="#q"/><use transform="matrix(0.05,0,0,0.05,12,0)" xlink:href="#r"/><use transform="matrix(0.05,0,0,0.05,22,0)" xlink:href="#s"/><use transform="matrix(0.05,0,0,0.05,32,0)" xlink:href="#t"/><use transform="matrix(0.05,0,0,0.05,35.95,0)" xlink:href="#m"/><use transform="matrix(0.05,0,0,0.05,45.95,0)" xlink:href="#u"/><use transform="matrix(0.05,0,0,0.05,57.95,0)" xlink:href="#t"/><use transform="matrix(0.05,0,0,0.05,61.900000000000006,0)" xlink:href="#o"/><use transform="matrix(0.05,0,0,0.05,66.9,0)" xlink:href="#F"/><use transform="matrix(0.05,0,0,0.05,79.85000000000001,0)" xlink:href="#G"/></g><path d="M137 0h-34L2-248h35l83 218 83-218h36" id="H"/><path d="M63-220v92h138v28H63V0H30v-248h175v28H63" id="I"/><path d="M141-36C126-15 110 5 73 4 37 3 15-17 15-53c-1-64 63-63 125-63 3-35-9-54-41-54-24 1-41 7-42 31l-33-3c5-37 33-52 76-52 45 0 72 20 72 64v82c-1 20 7 32 28 27v20c-31 9-61-2-59-35zM48-53c0 20 12 33 32 33 41-3 63-29 60-74-43 2-92-5-92 41" id="J"/><g id="h"><use transform="matrix(0.05,0,0,0.05,0,0)" xlink:href="#q"/><use transform="matrix(0.05,0,0,0.05,10.65,0)" xlink:href="#H"/><use transform="matrix(0.05,0,0,0.05,22.65,0)" xlink:href="#I"/><use transform="matrix(0.05,0,0,0.05,33.6,0)" xlink:href="#m"/><use transform="matrix(0.05,0,0,0.05,43.6,0)" xlink:href="#r"/><use transform="matrix(0.05,0,0,0.05,53.6,0)" xlink:href="#v"/><use transform="matrix(0.05,0,0,0.05,63.6,0)" xlink:href="#s"/><use transform="matrix(0.05,0,0,0.05,73.6,0)" xlink:href="#J"/><use transform="matrix(0.05,0,0,0.05,83.6,0)" xlink:href="#o"/><use transform="matrix(0.05,0,0,0.05,88.6,0)" xlink:href="#t"/><use transform="matrix(0.05,0,0,0.05,92.55,0)" xlink:href="#m"/><use transform="matrix(0.05,0,0,0.05,102.55000000000001,0)" xlink:href="#v"/></g><g id="i"><use transform="matrix(0.05,0,0,0.05,0,0)" xlink:href="#q"/><use transform="matrix(0.05,0,0,0.05,12,0)" xlink:href="#q"/><use transform="matrix(0.05,0,0,0.05,24,0)" xlink:href="#q"/><use transform="matrix(0.05,0,0,0.05,36,0)" xlink:href="#q"/><use transform="matrix(0.05,0,0,0.05,48,0)" xlink:href="#r"/><use transform="matrix(0.05,0,0,0.05,58,0)" xlink:href="#s"/><use transform="matrix(0.05,0,0,0.05,68,0)" xlink:href="#t"/><use transform="matrix(0.05,0,0,0.05,71.95,0)" xlink:href="#m"/><use transform="matrix(0.05,0,0,0.05,81.95,0)" xlink:href="#u"/><use transform="matrix(0.05,0,0,0.05,93.95,0)" xlink:href="#t"/><use transform="matrix(0.05,0,0,0.05,97.9,0)" xlink:href="#o"/></g><g id="j"><use transform="matrix(0.05,0,0,0.05,0,0)" xlink:href="#q"/><use transform="matrix(0.05,0,0,0.05,12,0)" xlink:href="#r"/><use transform="matrix(0.05,0,0,0.05,22,0)" xlink:href="#s"/><use transform="matrix(0.05,0,0,0.05,32,0)" xlink:href="#t"/><use transform="matrix(0.05,0,0,0.05,35.95,0)" xlink:href="#m"/><use transform="matrix(0.05,0,0,0.05,45.95,0)" xlink:href="#u"/><use transform="matrix(0.05,0,0,0.05,57.95,0)" xlink:href="#t"/><use transform="matrix(0.05,0,0,0.05,61.900000000000006,0)" xlink:href="#o"/></g></defs></g></svg>